<?xml version="1.0"?><mxGraphModel><root><mxCell id="0" /><mxCell id="1" parent="0" /><mxCell id="edge1" style="rounded=1;html=1;exitX=0.5;exitY=0;entryX=0.5;entryY=1;jettySize=auto;curved=0;endArrow=block;dashed=0;endFill=1;" parent="1" edge="1" source="node7" target="node8"><mxGeometry as="geometry" relative="1" /></mxCell><mxCell id="edge2" style="rounded=1;html=1;exitX=0.638;exitY=0;entryX=0;entryY=1;jettySize=auto;curved=0;endArrow=block;dashed=0;endFill=1;" parent="1" edge="1" source="node9" target="node2"><mxGeometry as="geometry" relative="1"><Array as="points"><mxPoint x="359.08" y="400.49999999999994" /><mxPoint x="445.53" y="282.59999999999997" /><mxPoint x="552.83" y="193.07999999999993" /></Array></mxGeometry></mxCell><mxCell id="edge3" style="rounded=1;html=1;exitX=0.678;exitY=0;entryX=0.379;entryY=1;jettySize=auto;curved=0;endArrow=block;dashed=0;endFill=1;" parent="1" edge="1" source="node10" target="node2"><mxGeometry as="geometry" relative="1" /></mxCell><mxCell id="edge4" style="rounded=1;html=1;exitX=0.373;exitY=0;entryX=0.62;entryY=1;jettySize=auto;curved=0;endArrow=block;dashed=0;endFill=1;" parent="1" edge="1" source="node11" target="node2"><mxGeometry as="geometry" relative="1" /></mxCell><mxCell id="edge5" style="rounded=1;html=1;exitX=0.248;exitY=0;entryX=1;entryY=1;jettySize=auto;curved=0;endArrow=block;dashed=0;endFill=1;" parent="1" edge="1" source="node12" target="node2"><mxGeometry as="geometry" relative="1"><Array as="points"><mxPoint x="928.21" y="358.69999999999993" /><mxPoint x="875.53" y="282.59999999999997" /><mxPoint x="763.98" y="188.75999999999993" /></Array></mxGeometry></mxCell><mxCell id="edge6" style="rounded=1;html=1;exitX=0.61;exitY=0;entryX=0.5;entryY=1;jettySize=auto;curved=0;endArrow=block;dashed=0;endFill=1;" parent="1" edge="1" source="node13" target="node5"><mxGeometry as="geometry" relative="1" /></mxCell><mxCell id="edge7" style="rounded=1;html=1;exitX=0.376;exitY=0;entryX=0.5;entryY=1;jettySize=auto;curved=0;endArrow=block;dashed=0;endFill=1;" parent="1" edge="1" source="node14" target="node5"><mxGeometry as="geometry" relative="1" /></mxCell><mxCell id="node1" value="&lt;p style='margin:0px;text-align:center;margin-top:4px;;font-size:10.0px;font-family:Times New Roman,serif;color:#000000;'&gt;base_classes.AbstractAction&lt;/p&gt;&lt;hr size='1'/&gt;&lt;p style='margin:0px;text-align:start;margin-left:4px;;font-size:10.0px;font-family:Times New Roman,serif;color:#000000;'&gt;activation_condition : NoneType&lt;/p&gt;&lt;hr size='1'/&gt;&lt;p style='margin:0px;text-align:start;margin-left:4px;;font-size:10.0px;font-family:Times New Roman,serif;color:#000000;'&gt;__init__(parent)&lt;br/&gt;from_xml(node)&lt;br/&gt;icon()&lt;br/&gt;requires_virtual_button()&lt;br/&gt;to_xml()&lt;/p&gt;" style="verticalAlign=top;align=left;overflow=fill;html=1;rounded=0;shadow=0;comic=0;labelBackgroundColor=none;strokeColor=black;strokeWidth=1;fillColor=#ffffff;" parent="1" vertex="1"><mxGeometry x="4.0" y="383.9" width="201.06" height="141.60000000000002" as="geometry" /></mxCell><mxCell id="node2" value="&lt;p style='margin:0px;text-align:center;margin-top:4px;;font-size:10.0px;font-family:Times New Roman,serif;color:#000000;'&gt;base_classes.AbstractCondition&lt;/p&gt;&lt;hr size='1'/&gt;&lt;p style='margin:0px;text-align:start;margin-left:4px;;font-size:10.0px;font-family:Times New Roman,serif;color:#000000;'&gt;comparison : str&lt;/p&gt;&lt;hr size='1'/&gt;&lt;p style='margin:0px;text-align:start;margin-left:4px;;font-size:10.0px;font-family:Times New Roman,serif;color:#000000;'&gt;__init__()&lt;br/&gt;from_xml(node)&lt;br/&gt;is_valid()&lt;br/&gt;to_xml()&lt;/p&gt;" style="verticalAlign=top;align=left;overflow=fill;html=1;rounded=0;shadow=0;comic=0;labelBackgroundColor=none;strokeColor=black;strokeWidth=1;fillColor=#ffffff;" parent="1" vertex="1"><mxGeometry x="561.69" y="62.89999999999998" width="193.67999999999995" height="124.79999999999995" as="geometry" /></mxCell><mxCell id="node3" value="&lt;p style='margin:0px;text-align:center;margin-top:4px;;font-size:10.0px;font-family:Times New Roman,serif;color:#000000;'&gt;base_classes.AbstractContainer&lt;/p&gt;&lt;hr size='1'/&gt;&lt;p style='margin:0px;text-align:start;margin-left:4px;;font-size:10.0px;font-family:Times New Roman,serif;color:#000000;'&gt;action_sets : list&lt;br/&gt;activation_condition : NoneType&lt;br/&gt;activation_condition_type : str, NoneType&lt;br/&gt;current_view_type : NoneType&lt;br/&gt;virtual_button : NoneType&lt;br/&gt;virtual_button_lut : dict&lt;/p&gt;&lt;hr size='1'/&gt;&lt;p style='margin:0px;text-align:start;margin-left:4px;;font-size:10.0px;font-family:Times New Roman,serif;color:#000000;'&gt;__init__(parent)&lt;br/&gt;_is_container_valid()&lt;br/&gt;_is_valid()&lt;br/&gt;_parse_action_set_xml(node)&lt;br/&gt;_parse_action_xml(node, action_set)&lt;br/&gt;_parse_activation_condition_xml(node)&lt;br/&gt;_parse_virtual_button_xml(node)&lt;br/&gt;add_action(action, index)&lt;br/&gt;create_or_delete_virtual_button()&lt;br/&gt;from_xml(node)&lt;br/&gt;generate_callbacks()&lt;br/&gt;to_xml()&lt;/p&gt;" style="verticalAlign=top;align=left;overflow=fill;html=1;rounded=0;shadow=0;comic=0;labelBackgroundColor=none;strokeColor=black;strokeWidth=1;fillColor=#ffffff;" parent="1" vertex="1"><mxGeometry x="1077.95" y="283.09999999999997" width="253.15999999999985" height="343.2" as="geometry" /></mxCell><mxCell id="node4" value="&lt;p style='margin:0px;text-align:center;margin-top:4px;;font-size:10.0px;font-family:Times New Roman,serif;color:#000000;'&gt;base_classes.AbstractFunctor&lt;/p&gt;&lt;hr size='1'/&gt;&lt;p style='margin:0px;text-align:start;margin-left:4px;;font-size:10.0px;font-family:Times New Roman,serif;color:#000000;'&gt;__init__(instance)&lt;br/&gt;process_event(event, value)&lt;/p&gt;" style="verticalAlign=top;align=left;overflow=fill;html=1;rounded=0;shadow=0;comic=0;labelBackgroundColor=none;strokeColor=black;strokeWidth=1;fillColor=#ffffff;" parent="1" vertex="1"><mxGeometry x="1348.92" y="409.49999999999994" width="181.23000000000002" height="90.40000000000003" as="geometry" /></mxCell><mxCell id="node5" value="&lt;p style='margin:0px;text-align:center;margin-top:4px;;font-size:10.0px;font-family:Times New Roman,serif;color:#000000;'&gt;base_classes.AbstractVirtualButton&lt;/p&gt;&lt;hr size='1'/&gt;&lt;p style='margin:0px;text-align:start;margin-left:4px;;font-size:10.0px;font-family:Times New Roman,serif;color:#000000;'&gt;__init__()&lt;br/&gt;from_xml(node)&lt;br/&gt;to_xml()&lt;/p&gt;" style="verticalAlign=top;align=left;overflow=fill;html=1;rounded=0;shadow=0;comic=0;labelBackgroundColor=none;strokeColor=black;strokeWidth=1;fillColor=#ffffff;" parent="1" vertex="1"><mxGeometry x="1652.81" y="71.69999999999993" width="215.45000000000005" height="107.20000000000005" as="geometry" /></mxCell><mxCell id="node6" value="&lt;p style='margin:0px;text-align:center;margin-top:4px;;font-size:10.0px;font-family:Times New Roman,serif;color:#000000;'&gt;base_classes.ActivationCondition&lt;/p&gt;&lt;hr size='1'/&gt;&lt;p style='margin:0px;text-align:start;margin-left:4px;;font-size:10.0px;font-family:Times New Roman,serif;color:#000000;'&gt;condition_lookup : dict&lt;br/&gt;conditions&lt;br/&gt;rule&lt;br/&gt;rule_lookup : dict&lt;/p&gt;&lt;hr size='1'/&gt;&lt;p style='margin:0px;text-align:start;margin-left:4px;;font-size:10.0px;font-family:Times New Roman,serif;color:#000000;'&gt;__init__(conditions, rule)&lt;br/&gt;from_xml(node)&lt;br/&gt;to_xml()&lt;/p&gt;" style="verticalAlign=top;align=left;overflow=fill;html=1;rounded=0;shadow=0;comic=0;labelBackgroundColor=none;strokeColor=black;strokeWidth=1;fillColor=#ffffff;" parent="1" vertex="1"><mxGeometry x="1981.85" y="375.49999999999994" width="205.36000000000013" height="158.40000000000003" as="geometry" /></mxCell><mxCell id="node7" value="&lt;p style='margin:0px;text-align:center;margin-top:4px;;font-size:10.0px;font-family:Times New Roman,serif;color:#000000;'&gt;base_classes.ActivationRule&lt;/p&gt;&lt;hr size='1'/&gt;&lt;p style='margin:0px;text-align:center;margin-top:4px;;font-size:10.0px;font-family:Times New Roman,serif;color:#000000;'&gt; &lt;/p&gt;" style="verticalAlign=top;align=left;overflow=fill;html=1;rounded=0;shadow=0;comic=0;labelBackgroundColor=none;strokeColor=black;strokeWidth=1;fillColor=#ffffff;" parent="1" vertex="1"><mxGeometry x="2205.64" y="417.9" width="175.78999999999996" height="73.59999999999997" as="geometry" /></mxCell><mxCell id="node8" value="&lt;p style='margin:0px;text-align:center;margin-top:4px;;font-size:10.0px;font-family:Times New Roman,serif;color:#000000;'&gt;enum.Enum&lt;/p&gt;&lt;hr size='1'/&gt;&lt;p style='margin:0px;text-align:start;margin-left:4px;;font-size:10.0px;font-family:Times New Roman,serif;color:#000000;'&gt;__dir__()&lt;br/&gt;__format__(format_spec)&lt;br/&gt;__hash__()&lt;br/&gt;__new__(cls, value)&lt;br/&gt;__reduce_ex__(proto)&lt;br/&gt;__repr__()&lt;br/&gt;__str__()&lt;br/&gt;_generate_next_value_(name, start, count, last_values)&lt;br/&gt;_missing_(cls, value)&lt;br/&gt;name()&lt;br/&gt;value()&lt;/p&gt;" style="verticalAlign=top;align=left;overflow=fill;html=1;rounded=0;shadow=0;comic=0;labelBackgroundColor=none;strokeColor=black;strokeWidth=1;fillColor=#ffffff;" parent="1" vertex="1"><mxGeometry x="2131.59" y="4.5" width="323.87999999999965" height="241.59999999999997" as="geometry" /></mxCell><mxCell id="node9" value="&lt;p style='margin:0px;text-align:center;margin-top:4px;;font-size:10.0px;font-family:Times New Roman,serif;color:#000000;'&gt;base_classes.InputActionCondition&lt;/p&gt;&lt;hr size='1'/&gt;&lt;p style='margin:0px;text-align:start;margin-left:4px;;font-size:10.0px;font-family:Times New Roman,serif;color:#000000;'&gt;comparison&lt;/p&gt;&lt;hr size='1'/&gt;&lt;p style='margin:0px;text-align:start;margin-left:4px;;font-size:10.0px;font-family:Times New Roman,serif;color:#000000;'&gt;__init__()&lt;br/&gt;from_xml(node)&lt;br/&gt;to_xml()&lt;/p&gt;" style="verticalAlign=top;align=left;overflow=fill;html=1;rounded=0;shadow=0;comic=0;labelBackgroundColor=none;strokeColor=black;strokeWidth=1;fillColor=#ffffff;" parent="1" vertex="1"><mxGeometry x="222.57" y="400.69999999999993" width="213.92000000000002" height="108.0" as="geometry" /></mxCell><mxCell id="node10" value="&lt;p style='margin:0px;text-align:center;margin-top:4px;;font-size:10.0px;font-family:Times New Roman,serif;color:#000000;'&gt;base_classes.JoystickCondition&lt;/p&gt;&lt;hr size='1'/&gt;&lt;p style='margin:0px;text-align:start;margin-left:4px;;font-size:10.0px;font-family:Times New Roman,serif;color:#000000;'&gt;comparison&lt;br/&gt;device_guid : int&lt;br/&gt;device_name : str&lt;br/&gt;input_id : int&lt;br/&gt;input_type : NoneType&lt;br/&gt;range : list&lt;/p&gt;&lt;hr size='1'/&gt;&lt;p style='margin:0px;text-align:start;margin-left:4px;;font-size:10.0px;font-family:Times New Roman,serif;color:#000000;'&gt;__init__()&lt;br/&gt;from_xml(node)&lt;br/&gt;is_valid()&lt;br/&gt;to_xml()&lt;/p&gt;" style="verticalAlign=top;align=left;overflow=fill;html=1;rounded=0;shadow=0;comic=0;labelBackgroundColor=none;strokeColor=black;strokeWidth=1;fillColor=#ffffff;" parent="1" vertex="1"><mxGeometry x="454.46" y="350.29999999999995" width="192.15000000000003" height="208.79999999999995" as="geometry" /></mxCell><mxCell id="node11" value="&lt;p style='margin:0px;text-align:center;margin-top:4px;;font-size:10.0px;font-family:Times New Roman,serif;color:#000000;'&gt;base_classes.KeyboardCondition&lt;/p&gt;&lt;hr size='1'/&gt;&lt;p style='margin:0px;text-align:start;margin-left:4px;;font-size:10.0px;font-family:Times New Roman,serif;color:#000000;'&gt;comparison&lt;br/&gt;is_extended : NoneType&lt;br/&gt;scan_code : NoneType&lt;/p&gt;&lt;hr size='1'/&gt;&lt;p style='margin:0px;text-align:start;margin-left:4px;;font-size:10.0px;font-family:Times New Roman,serif;color:#000000;'&gt;__init__()&lt;br/&gt;from_xml(node)&lt;br/&gt;is_valid()&lt;br/&gt;to_xml()&lt;/p&gt;" style="verticalAlign=top;align=left;overflow=fill;html=1;rounded=0;shadow=0;comic=0;labelBackgroundColor=none;strokeColor=black;strokeWidth=1;fillColor=#ffffff;" parent="1" vertex="1"><mxGeometry x="664.8" y="375.49999999999994" width="201.46000000000004" height="158.40000000000003" as="geometry" /></mxCell><mxCell id="node12" value="&lt;p style='margin:0px;text-align:center;margin-top:4px;;font-size:10.0px;font-family:Times New Roman,serif;color:#000000;'&gt;base_classes.VJoyCondition&lt;/p&gt;&lt;hr size='1'/&gt;&lt;p style='margin:0px;text-align:start;margin-left:4px;;font-size:10.0px;font-family:Times New Roman,serif;color:#000000;'&gt;comparison&lt;br/&gt;input_id : int&lt;br/&gt;input_type : NoneType&lt;br/&gt;range : list&lt;br/&gt;vjoy_id : int&lt;/p&gt;&lt;hr size='1'/&gt;&lt;p style='margin:0px;text-align:start;margin-left:4px;;font-size:10.0px;font-family:Times New Roman,serif;color:#000000;'&gt;__init__()&lt;br/&gt;from_xml(node)&lt;br/&gt;is_valid()&lt;br/&gt;to_xml()&lt;/p&gt;" style="verticalAlign=top;align=left;overflow=fill;html=1;rounded=0;shadow=0;comic=0;labelBackgroundColor=none;strokeColor=black;strokeWidth=1;fillColor=#ffffff;" parent="1" vertex="1"><mxGeometry x="884.62" y="358.69999999999993" width="175.82000000000005" height="192.0" as="geometry" /></mxCell><mxCell id="node13" value="&lt;p style='margin:0px;text-align:center;margin-top:4px;;font-size:10.0px;font-family:Times New Roman,serif;color:#000000;'&gt;base_classes.VirtualAxisButton&lt;/p&gt;&lt;hr size='1'/&gt;&lt;p style='margin:0px;text-align:start;margin-left:4px;;font-size:10.0px;font-family:Times New Roman,serif;color:#000000;'&gt;direction&lt;br/&gt;lower_limit : float&lt;br/&gt;upper_limit : float&lt;/p&gt;&lt;hr size='1'/&gt;&lt;p style='margin:0px;text-align:start;margin-left:4px;;font-size:10.0px;font-family:Times New Roman,serif;color:#000000;'&gt;__init__(lower_limit, upper_limit)&lt;br/&gt;from_xml(node)&lt;br/&gt;to_xml()&lt;/p&gt;" style="verticalAlign=top;align=left;overflow=fill;html=1;rounded=0;shadow=0;comic=0;labelBackgroundColor=none;strokeColor=black;strokeWidth=1;fillColor=#ffffff;" parent="1" vertex="1"><mxGeometry x="1547.71" y="383.9" width="209.63999999999987" height="141.60000000000002" as="geometry" /></mxCell><mxCell id="node14" value="&lt;p style='margin:0px;text-align:center;margin-top:4px;;font-size:10.0px;font-family:Times New Roman,serif;color:#000000;'&gt;base_classes.VirtualHatButton&lt;/p&gt;&lt;hr size='1'/&gt;&lt;p style='margin:0px;text-align:start;margin-left:4px;;font-size:10.0px;font-family:Times New Roman,serif;color:#000000;'&gt;direction_to_name : dict&lt;br/&gt;directions : list&lt;br/&gt;name_to_direction : dict&lt;/p&gt;&lt;hr size='1'/&gt;&lt;p style='margin:0px;text-align:start;margin-left:4px;;font-size:10.0px;font-family:Times New Roman,serif;color:#000000;'&gt;__init__(directions)&lt;br/&gt;from_xml(node)&lt;br/&gt;to_xml()&lt;/p&gt;" style="verticalAlign=top;align=left;overflow=fill;html=1;rounded=0;shadow=0;comic=0;labelBackgroundColor=none;strokeColor=black;strokeWidth=1;fillColor=#ffffff;" parent="1" vertex="1"><mxGeometry x="1775.41" y="383.9" width="188.24" height="141.60000000000002" as="geometry" /></mxCell></root></mxGraphModel>